<svg xmlns="http://www.w3.org/2000/svg" width="64" height="72" viewBox="0 0 64 72" role="img" aria-label="Brigade Anti-Criminalité">
  <defs>
    <clipPath id="crest">
      <path d="M32 2 60 10v28c0 15-12 27-28 32C16 65 4 53 4 38V10z"/>
    </clipPath>
    <linearGradient id="field" x1="0" y1="0" x2="0" y2="1">
      <stop offset="0" stop-color="#143b58"/>
      <stop offset="1" stop-color="#071d2c"/>
    </linearGradient>
  </defs>

  <g clip-path="url(#crest)">
    <rect x="0" y="0" width="64" height="72" fill="url(#field)"/>
    <rect x="0" y="8" width="21.3" height="13" fill="#1e5aa8"/>
    <rect x="21.3" y="8" width="21.4" height="13" fill="#f4f7f9"/>
    <rect x="42.7" y="8" width="21.3" height="13" fill="#e33b43"/>
    <path d="M0 48h64v24H0z" fill="#040f18" opacity=".55"/>
  </g>

  <path d="M32 2 60 10v28c0 15-12 27-28 32C16 65 4 53 4 38V10z"
        fill="none" stroke="#d7b46a" stroke-width="3.5" stroke-linejoin="round"/>

  <path d="M32 25l3.5 7.4 8.1 1.1-5.9 5.6 1.5 8L32 43.2l-7.2 3.9 1.5-8-5.9-5.6 8.1-1.1z"
        fill="#d7b46a"/>

  <text x="32" y="60" text-anchor="middle"
        font-family="Arial, Helvetica, sans-serif" font-size="13" font-weight="900"
        letter-spacing="1.5" fill="#f4f7f9">BAC</text>
</svg>
